<svg width="24" height="24" viewBox="0 0 24 24" fill="none" xmlns="http://www.w3.org/2000/svg">
<g opacity="0.8">
<path fill-rule="evenodd" clip-rule="evenodd" d="M8.92833 2C7.22312 1.9999 5.76776 3.23257 5.48726 4.91455L5.27874 6.16493C3.44977 6.27333 2 7.79091 2 9.6471V17.58C2 19.5067 3.56192 21.0685 5.48858 21.0684L18.5118 21.0676C20.4383 21.0675 22 19.5058 22 17.5793V9.64709C22 7.79965 20.5639 6.28764 18.7471 6.16654L18.5479 4.93266C18.275 3.2427 16.8161 2.00048 15.1043 2.00037L8.92833 2ZM16.1763 13.2796C16.39 13.6002 16.8232 13.6868 17.1438 13.4731C17.4644 13.2593 17.551 12.8262 17.3373 12.5056L16.0554 10.5827C15.7424 10.1132 15.0525 10.1132 14.7396 10.5827L13.4577 12.5056C13.2439 12.8262 13.3306 13.2593 13.6512 13.4731C13.9718 13.6868 14.4049 13.6002 14.6187 13.2796L14.6835 13.1823C14.6576 13.3165 14.6215 13.4524 14.5719 13.5887C14.4448 13.9384 14.233 14.2504 13.8721 14.4835C13.5044 14.721 12.9241 14.9135 11.9993 14.9135C11.614 14.9135 11.3016 15.2259 11.3016 15.6112C11.3016 15.9965 11.614 16.3089 11.9993 16.3089C13.1134 16.3089 13.9774 16.0766 14.6291 15.6557C15.2877 15.2303 15.6706 14.6503 15.8833 14.0655C15.9918 13.7671 16.0567 13.4551 16.0939 13.1559L16.1763 13.2796ZM9.37975 13.1852L9.37694 13.1894C9.40064 13.0856 9.43082 12.9809 9.46894 12.8761C9.59611 12.5264 9.80789 12.2143 10.1688 11.9812C10.5365 11.7438 11.1167 11.5512 12.0415 11.5512C12.4269 11.5512 12.7392 11.2389 12.7392 10.8536C12.7392 10.4682 12.4269 10.1559 12.0415 10.1559C10.9274 10.1559 10.0635 10.3882 9.41174 10.8091C8.75316 11.2344 8.37026 11.8144 8.1576 12.3992C8.04252 12.7157 7.97644 13.0474 7.94059 13.3629L7.8221 13.1852C7.60837 12.8646 7.1752 12.778 6.8546 12.9917C6.534 13.2054 6.44737 13.6386 6.6611 13.9592L7.94302 15.8821C8.256 16.3515 8.94585 16.3515 9.25882 15.8821L10.5407 13.9592C10.7545 13.6386 10.6678 13.2054 10.3472 12.9917C10.0266 12.778 9.59348 12.8646 9.37975 13.1852Z" fill="white"/>
</g>
</svg>
