<svg width="24" height="24" viewBox="0 0 24 24" fill="none" xmlns="http://www.w3.org/2000/svg">
<g opacity="0.8">
<path d="M4.1817 17.0609C4.25362 16.8087 4.22357 16.5383 4.09803 16.308C3.35063 14.9371 2.97275 13.3953 3.00153 11.8341C3.03031 10.273 3.46475 8.74615 4.26217 7.4037C5.05959 6.06125 6.19255 4.94936 7.54972 4.17727C8.9069 3.40519 10.4416 2.99947 12.003 3C13.3835 3.00046 14.7454 3.3185 15.9834 3.9295C17.2213 4.54051 18.3021 5.4281 19.1421 6.52362C19.9821 7.61914 20.5588 8.89322 20.8277 10.2473C21.0965 11.6014 21.0503 12.9992 20.6925 14.3325C20.3347 15.6658 19.675 16.899 18.7644 17.9366C17.8538 18.9742 16.7167 19.7884 15.4411 20.3162C14.1655 20.844 12.7855 21.0713 11.408 20.9805C10.0305 20.8897 8.69231 20.4832 7.49703 19.7925C7.24927 19.6493 6.95206 19.6192 6.68059 19.7096L3.08482 20.9077L4.1817 17.0609Z" stroke="white" stroke-width="2" stroke-linejoin="round"/>
<path d="M8.66992 10.5664C8.66992 10.3454 8.75772 10.1335 8.914 9.97717C9.07028 9.82089 9.28224 9.73309 9.50325 9.73309H14.5032C14.7243 9.73309 14.9362 9.82089 15.0925 9.97717C15.2488 10.1335 15.3366 10.3454 15.3366 10.5664C15.3366 10.7874 15.2488 10.9994 15.0925 11.1557C14.9362 11.312 14.7243 11.3998 14.5032 11.3998H9.50325C9.28224 11.3998 9.07028 11.312 8.914 11.1557C8.75772 10.9994 8.66992 10.7874 8.66992 10.5664ZM9.50325 13.0664H12.8366C13.0576 13.0664 13.2696 13.1542 13.4258 13.3105C13.5821 13.4668 13.6699 13.6787 13.6699 13.8998C13.6699 14.1208 13.5821 14.3327 13.4258 14.489C13.2696 14.6453 13.0576 14.7331 12.8366 14.7331H9.50325C9.28224 14.7331 9.07028 14.6453 8.914 14.489C8.75772 14.3327 8.66992 14.1208 8.66992 13.8998C8.66992 13.6787 8.75772 13.4668 8.914 13.3105C9.07028 13.1542 9.28224 13.0664 9.50325 13.0664Z" fill="white"/>
</g>
</svg>
