<svg width="24" height="24" viewBox="0 0 24 24" fill="none" xmlns="http://www.w3.org/2000/svg">
<path fill-rule="evenodd" clip-rule="evenodd" d="M20.3333 10.3173C21.289 10.069 22 9.1964 22 8.16583C22 6.9436 21 5.9436 19.7778 5.9436H4.22222C3 5.9436 2 6.9436 2 8.16583C2 9.1964 2.71098 10.069 3.66667 10.3173V19.2769C3.66667 20.4992 4.66667 21.4992 5.88889 21.4992H18.1111C19.3333 21.4992 20.3333 20.4992 20.3333 19.2769V10.3173Z" fill="url(#paint0_linear_2800_4331)"/>
<path d="M3.6665 10.3881H20.3332V11.4992H3.6665V10.3881Z" fill="black" fill-opacity="0.1"/>
<path fill-rule="evenodd" clip-rule="evenodd" d="M10.0051 4.54741L7.35474 2.69191C7.24015 2.60848 7.1091 2.55044 6.97032 2.52165C6.83154 2.49285 6.68821 2.49398 6.5499 2.52494C6.41158 2.55591 6.28146 2.616 6.1682 2.70122C6.05494 2.78643 5.96114 2.89481 5.89307 3.01913L4.77307 4.97914C4.46974 5.50969 4.72196 5.94358 5.33307 5.94358H9.77759V21.4991H14.222V5.94358H18.6664C19.2775 5.94358 19.5297 5.50969 19.227 4.97858L18.107 3.01913C18.0388 2.89488 17.945 2.78657 17.8317 2.7014C17.7185 2.61624 17.5884 2.55618 17.4501 2.52522C17.3118 2.49426 17.1685 2.49312 17.0297 2.52186C16.891 2.5506 16.7599 2.60857 16.6453 2.69191L13.9945 4.54741C13.9231 4.4251 13.8358 4.31139 13.7339 4.20951C13.4213 3.89695 12.9974 3.72135 12.5554 3.72135H11.4443C11.0022 3.72135 10.5783 3.89695 10.2657 4.20951C10.1639 4.31139 10.0765 4.4251 10.0051 4.54741Z" fill="#F8AB17"/>
<defs>
<linearGradient id="paint0_linear_2800_4331" x1="5.62566" y1="3.90292" x2="15.1132" y2="25.1781" gradientUnits="userSpaceOnUse">
<stop stop-color="white"/>
<stop offset="1" stop-color="white" stop-opacity="0.8"/>
</linearGradient>
</defs>
</svg>
